
<svg xmlns="http://www.w3.org/2000/svg" width="640" height="853" viewBox="0 0 640 853">
<defs>
  <linearGradient id="bg" x1="0" y1="0" x2="1" y2="1"><stop stop-color="#4c4d63"/><stop offset=".5" stop-color="#756a81"/><stop offset="1" stop-color="#415866"/></linearGradient>
  <radialGradient id="glow" cx="30%" cy="18%" r="65%"><stop stop-color="#dccdf8" stop-opacity=".8"/><stop offset="1" stop-color="#dccdf8" stop-opacity="0"/></radialGradient>
  <filter id="soft"><feGaussianBlur stdDeviation="20"/></filter>
</defs>
<rect width="640" height="853" fill="url(#bg)"/>
<rect width="640" height="853" fill="url(#glow)"/>
<ellipse cx="500" cy="220" rx="160" ry="120" fill="#d7a6be" opacity=".2" filter="url(#soft)"/>
<path d="M0 680c95-90 185-84 265-10 86-72 178-66 375 33v150H0z" fill="#2f3844" opacity=".45"/>
<g opacity=".88">
  <rect x="128" y="452" width="384" height="220" rx="30" fill="#efe8ef" opacity=".82"/>
  <circle cx="203" cy="527" r="36" fill="#b68591" opacity=".45"/>
  <rect x="260" y="505" width="162" height="14" rx="7" fill="#655b6f" opacity=".34"/>
  <rect x="260" y="535" width="122" height="11" rx="6" fill="#655b6f" opacity=".22"/>
  <rect x="168" y="593" width="305" height="12" rx="6" fill="#655b6f" opacity=".18"/>
  <rect x="168" y="620" width="236" height="12" rx="6" fill="#655b6f" opacity=".15"/>
</g>
<circle cx="115" cy="205" r="64" fill="#fff" opacity=".08"/>
<circle cx="555" cy="370" r="84" fill="#fff" opacity=".05"/>
</svg>
